<svg width="411" height="164" viewBox="0 0 411 164" fill="none" xmlns="http://www.w3.org/2000/svg">
<path d="M410.406 161.853H0.593931C0.43641 161.853 0.285341 161.794 0.173958 161.689C0.0625742 161.584 0 161.441 0 161.293C0 161.144 0.0625742 161.002 0.173958 160.896C0.285341 160.791 0.43641 160.732 0.593931 160.732H410.406C410.564 160.732 410.715 160.791 410.826 160.896C410.937 161.002 411 161.144 411 161.293C411 161.441 410.937 161.584 410.826 161.689C410.715 161.794 410.564 161.853 410.406 161.853Z" fill="#CCCCCC"/>
<path d="M369.843 64.1636H128.707C127.683 64.1636 126.702 64.5472 125.978 65.23C125.254 65.9128 124.847 66.8388 124.847 67.8045C124.847 68.7701 125.254 69.6962 125.978 70.379C126.702 71.0618 127.683 71.4454 128.707 71.4454H135.538V158.547C135.538 159.512 135.944 160.439 136.668 161.121C137.392 161.804 138.374 162.188 139.398 162.188C140.422 162.188 141.404 161.804 142.128 161.121C142.852 160.439 143.259 159.512 143.259 158.547L143.317 71.4454H354.698V158.547C354.698 159.512 355.105 160.439 355.829 161.121C356.553 161.804 357.535 162.188 358.558 162.188C359.582 162.188 360.564 161.804 361.288 161.121C362.012 160.439 362.419 159.512 362.419 158.547V73.3652L363.542 71.4454H369.843C370.867 71.4454 371.849 71.0618 372.573 70.379C373.297 69.6962 373.704 68.7701 373.704 67.8045C373.704 66.8388 373.297 65.9128 372.573 65.23C371.849 64.5472 370.867 64.1636 369.843 64.1636V64.1636Z" fill="#CCCCCC"/>
<path d="M268.55 61.425H260.754C260.754 61.2197 260.667 61.0229 260.513 60.8777C260.359 60.7325 260.151 60.651 259.933 60.651H257.471C257.253 60.651 257.044 60.7325 256.89 60.8777C256.737 61.0229 256.65 61.2197 256.65 61.425H254.188C254.188 61.2197 254.101 61.0229 253.948 60.8777C253.794 60.7325 253.585 60.651 253.367 60.651H250.905C250.687 60.651 250.479 60.7325 250.325 60.8777C250.171 61.0229 250.084 61.2197 250.084 61.425H247.622C247.622 61.2197 247.536 61.0229 247.382 60.8777C247.228 60.7325 247.019 60.651 246.802 60.651H244.339C244.122 60.651 243.913 60.7325 243.759 60.8777C243.605 61.0229 243.519 61.2197 243.519 61.425H241.057C241.057 61.2197 240.97 61.0229 240.816 60.8777C240.662 60.7325 240.454 60.651 240.236 60.651H237.774C237.556 60.651 237.347 60.7325 237.194 60.8777C237.04 61.0229 236.953 61.2197 236.953 61.425H234.491C234.491 61.2197 234.405 61.0229 234.251 60.8777C234.097 60.7325 233.888 60.651 233.67 60.651H231.208C230.991 60.651 230.782 60.7325 230.628 60.8777C230.474 61.0229 230.388 61.2197 230.388 61.425H227.925C227.925 61.2197 227.839 61.0229 227.685 60.8777C227.531 60.7325 227.322 60.651 227.105 60.651H224.643C224.425 60.651 224.216 60.7325 224.062 60.8777C223.908 61.0229 223.822 61.2197 223.822 61.425H221.36C221.36 61.2197 221.273 61.0229 221.119 60.8777C220.965 60.7325 220.757 60.651 220.539 60.651H218.077C217.859 60.651 217.651 60.7325 217.497 60.8777C217.343 61.0229 217.256 61.2197 217.256 61.425H214.794C214.794 61.2197 214.708 61.0229 214.554 60.8777C214.4 60.7325 214.191 60.651 213.973 60.651H211.511C211.294 60.651 211.085 60.7325 210.931 60.8777C210.777 61.0229 210.691 61.2197 210.691 61.425H208.229C208.229 61.2197 208.142 61.0229 207.988 60.8777C207.834 60.7325 207.625 60.651 207.408 60.651H204.946C204.728 60.651 204.519 60.7325 204.365 60.8777C204.211 61.0229 204.125 61.2197 204.125 61.425H201.663C201.663 61.2197 201.576 61.0229 201.423 60.8777C201.269 60.7325 201.06 60.651 200.842 60.651H198.38C198.162 60.651 197.954 60.7325 197.8 60.8777C197.646 61.0229 197.559 61.2197 197.559 61.425H195.097C195.097 61.2197 195.011 61.0229 194.857 60.8777C194.703 60.7325 194.494 60.651 194.277 60.651H191.814C191.597 60.651 191.388 60.7325 191.234 60.8777C191.08 61.0229 190.994 61.2197 190.994 61.425H183.197C182.545 61.426 181.919 61.671 181.459 62.1064C180.998 62.5417 180.739 63.1318 180.739 63.747C180.739 64.3623 180.998 64.9523 181.459 65.3877C181.919 65.8231 182.545 66.0681 183.197 66.0691H268.55C269.203 66.0691 269.83 65.8244 270.291 65.389C270.753 64.9535 271.012 64.3629 271.012 63.747C271.012 63.1312 270.753 62.5406 270.291 62.1051C269.83 61.6697 269.203 61.425 268.55 61.425V61.425Z" fill="#3F3D56"/>
<path d="M170.505 47.9402V63.3584H129.546C128.449 63.3944 127.355 63.2217 126.33 62.8505C125.305 62.4793 124.37 61.9172 123.58 61.1978C122.79 60.4784 122.162 59.6164 121.733 58.6631C121.304 57.7098 121.083 56.6849 121.083 55.6493C121.083 54.6138 121.304 53.5888 121.733 52.6355C122.162 51.6823 122.79 50.8202 123.58 50.1008C124.37 49.3814 125.305 48.8193 126.33 48.4481C127.355 48.0769 128.449 47.9042 129.546 47.9402H170.505Z" fill="#F2F2F2"/>
<path d="M171.511 63.2399C171.511 63.3971 171.445 63.5479 171.327 63.6591C171.209 63.7703 171.049 63.8328 170.882 63.8329H128.817C126.532 63.8329 124.341 62.9769 122.725 61.4534C121.11 59.9298 120.202 57.8634 120.202 55.7087C120.202 53.554 121.11 51.4876 122.725 49.964C124.341 48.4404 126.532 47.5845 128.817 47.5845H170.882C171.049 47.5845 171.209 47.647 171.327 47.7582C171.445 47.8694 171.511 48.0202 171.511 48.1775C171.511 48.3348 171.445 48.4856 171.327 48.5968C171.209 48.708 171.049 48.7705 170.882 48.7705H128.817C126.867 48.7721 124.997 49.5039 123.619 50.8048C122.241 52.1058 121.467 53.8696 121.467 55.7087C121.467 57.5477 122.241 59.3115 123.619 60.6125C124.997 61.9135 126.867 62.6452 128.817 62.6469H170.882C171.049 62.6469 171.209 62.7094 171.327 62.8206C171.445 62.9318 171.511 63.0826 171.511 63.2399V63.2399Z" fill="#6C63FF"/>
<path d="M170.505 51.4971H126.49C126.474 51.4972 126.457 51.4942 126.442 51.4884C126.426 51.4825 126.412 51.4738 126.401 51.4628C126.389 51.4519 126.38 51.4388 126.373 51.4245C126.367 51.4101 126.364 51.3947 126.364 51.3791C126.364 51.3636 126.367 51.3481 126.373 51.3338C126.38 51.3194 126.389 51.3064 126.401 51.2954C126.412 51.2844 126.426 51.2758 126.442 51.2699C126.457 51.264 126.474 51.261 126.49 51.2611H170.505C170.538 51.2613 170.57 51.2739 170.593 51.296C170.617 51.3181 170.63 51.348 170.63 51.3791C170.63 51.4103 170.617 51.4402 170.593 51.4623C170.57 51.4844 170.538 51.4969 170.505 51.4971V51.4971Z" fill="#CCCCCC"/>
<path d="M170.505 54.3435H126.49C126.474 54.3436 126.457 54.3406 126.442 54.3348C126.426 54.3289 126.412 54.3202 126.401 54.3093C126.389 54.2983 126.38 54.2852 126.373 54.2709C126.367 54.2565 126.364 54.2411 126.364 54.2255C126.364 54.21 126.367 54.1945 126.373 54.1802C126.38 54.1658 126.389 54.1528 126.401 54.1418C126.412 54.1308 126.426 54.1222 126.442 54.1163C126.457 54.1104 126.474 54.1074 126.49 54.1075H170.505C170.538 54.1078 170.57 54.1203 170.593 54.1424C170.617 54.1645 170.63 54.1944 170.63 54.2255C170.63 54.2567 170.617 54.2866 170.593 54.3087C170.57 54.3308 170.538 54.3433 170.505 54.3435V54.3435Z" fill="#CCCCCC"/>
<path d="M170.505 57.19H126.49C126.474 57.1901 126.457 57.1871 126.442 57.1813C126.426 57.1754 126.412 57.1667 126.401 57.1557C126.389 57.1448 126.38 57.1317 126.373 57.1173C126.367 57.103 126.364 57.0876 126.364 57.072C126.364 57.0564 126.367 57.041 126.373 57.0266C126.38 57.0123 126.389 56.9992 126.401 56.9883C126.412 56.9773 126.426 56.9686 126.442 56.9627C126.457 56.9568 126.474 56.9539 126.49 56.954H170.505C170.538 56.9542 170.57 56.9667 170.593 56.9888C170.617 57.0109 170.63 57.0408 170.63 57.072C170.63 57.1031 170.617 57.133 170.593 57.1551C170.57 57.1773 170.538 57.1898 170.505 57.19V57.19Z" fill="#CCCCCC"/>
<path d="M170.505 60.0364H126.49C126.474 60.0365 126.457 60.0336 126.442 60.0277C126.426 60.0218 126.412 60.0131 126.401 60.0022C126.389 59.9912 126.38 59.9781 126.373 59.9638C126.367 59.9494 126.364 59.934 126.364 59.9184C126.364 59.9029 126.367 59.8874 126.373 59.8731C126.38 59.8587 126.389 59.8457 126.401 59.8347C126.412 59.8237 126.426 59.815 126.442 59.8092C126.457 59.8033 126.474 59.8003 126.49 59.8004H170.505C170.538 59.8006 170.57 59.8132 170.593 59.8353C170.617 59.8574 170.63 59.8873 170.63 59.9184C170.63 59.9496 170.617 59.9795 170.593 60.0016C170.57 60.0237 170.538 60.0362 170.505 60.0364Z" fill="#CCCCCC"/>
<path d="M162.784 31.6963V47.1145H121.825C120.728 47.1505 119.634 46.9778 118.609 46.6066C117.584 46.2354 116.648 45.6733 115.859 44.9539C115.069 44.2345 114.441 43.3725 114.012 42.4192C113.583 41.466 113.362 40.441 113.362 39.4054C113.362 38.3699 113.583 37.3449 114.012 36.3916C114.441 35.4384 115.069 34.5763 115.859 33.8569C116.648 33.1375 117.584 32.5755 118.609 32.2042C119.634 31.833 120.728 31.6603 121.825 31.6963H162.784Z" fill="#F2F2F2"/>
<path d="M163.79 46.9959C163.79 47.1531 163.724 47.3039 163.606 47.4151C163.488 47.5263 163.328 47.5888 163.161 47.5889H121.096C119.964 47.5889 118.844 47.3787 117.799 46.9704C116.754 46.5622 115.804 45.9637 115.004 45.2093C114.204 44.4549 113.57 43.5593 113.137 42.5737C112.704 41.588 112.481 40.5315 112.481 39.4647C112.481 38.3978 112.704 37.3413 113.137 36.3557C113.57 35.37 114.204 34.4744 115.004 33.72C115.804 32.9656 116.754 32.3671 117.799 31.9589C118.844 31.5506 119.964 31.3405 121.096 31.3405H163.161C163.328 31.3405 163.488 31.4029 163.606 31.5141C163.724 31.6254 163.79 31.7762 163.79 31.9335C163.79 32.0907 163.724 32.2416 163.606 32.3528C163.488 32.464 163.328 32.5265 163.161 32.5265H121.096C119.146 32.5281 117.276 33.2598 115.898 34.5608C114.52 35.8618 113.745 37.6256 113.745 39.4647C113.745 41.3037 114.52 43.0675 115.898 44.3685C117.276 45.6695 119.146 46.4012 121.096 46.4028H163.161C163.328 46.4029 163.488 46.4654 163.606 46.5766C163.724 46.6878 163.79 46.8386 163.79 46.9959V46.9959Z" fill="#3F3D56"/>
<path d="M162.784 35.2531H118.769C118.752 35.2532 118.736 35.2502 118.721 35.2443C118.705 35.2384 118.691 35.2298 118.68 35.2188C118.668 35.2078 118.658 35.1948 118.652 35.1804C118.646 35.1661 118.642 35.1507 118.642 35.1351C118.642 35.1195 118.646 35.1041 118.652 35.0897C118.658 35.0754 118.668 35.0623 118.68 35.0514C118.691 35.0404 118.705 35.0317 118.721 35.0259C118.736 35.02 118.752 35.017 118.769 35.0171H162.784C162.817 35.0173 162.849 35.0298 162.872 35.0519C162.896 35.074 162.909 35.1039 162.909 35.1351C162.909 35.1662 162.896 35.1961 162.872 35.2182C162.849 35.2403 162.817 35.2529 162.784 35.2531V35.2531Z" fill="#CCCCCC"/>
<path d="M162.784 38.0995H118.769C118.752 38.0997 118.736 38.0967 118.721 38.0908C118.705 38.0849 118.691 38.0762 118.68 38.0653C118.668 38.0543 118.658 38.0413 118.652 38.0269C118.646 38.0125 118.642 37.9971 118.642 37.9815C118.642 37.966 118.646 37.9505 118.652 37.9362C118.658 37.9218 118.668 37.9088 118.68 37.8978C118.691 37.8868 118.705 37.8782 118.721 37.8723C118.736 37.8664 118.752 37.8634 118.769 37.8635H162.784C162.817 37.8637 162.849 37.8763 162.872 37.8984C162.896 37.9205 162.909 37.9504 162.909 37.9815C162.909 38.0127 162.896 38.0426 162.872 38.0647C162.849 38.0868 162.817 38.0993 162.784 38.0995V38.0995Z" fill="#CCCCCC"/>
<path d="M162.784 40.946H118.769C118.752 40.9461 118.736 40.9431 118.721 40.9372C118.705 40.9313 118.691 40.9226 118.68 40.9117C118.668 40.9007 118.658 40.8877 118.652 40.8733C118.646 40.8589 118.642 40.8435 118.642 40.828C118.642 40.8124 118.646 40.797 118.652 40.7826C118.658 40.7682 118.668 40.7552 118.68 40.7442C118.691 40.7333 118.705 40.7246 118.721 40.7187C118.736 40.7128 118.752 40.7099 118.769 40.71H162.784C162.817 40.7102 162.849 40.7227 162.872 40.7448C162.896 40.7669 162.909 40.7968 162.909 40.828C162.909 40.8591 162.896 40.889 162.872 40.9111C162.849 40.9332 162.817 40.9457 162.784 40.946V40.946Z" fill="#CCCCCC"/>
<path d="M162.784 43.7924H118.769C118.752 43.7925 118.736 43.7895 118.721 43.7836C118.705 43.7777 118.691 43.7691 118.68 43.7581C118.668 43.7471 118.658 43.7341 118.652 43.7197C118.646 43.7054 118.642 43.69 118.642 43.6744C118.642 43.6588 118.646 43.6434 118.652 43.6291C118.658 43.6147 118.668 43.6016 118.68 43.5907C118.691 43.5797 118.705 43.571 118.721 43.5651C118.736 43.5593 118.752 43.5563 118.769 43.5564H162.784C162.817 43.5566 162.849 43.5691 162.872 43.5912C162.896 43.6133 162.909 43.6432 162.909 43.6744C162.909 43.7055 162.896 43.7354 162.872 43.7575C162.849 43.7796 162.817 43.7922 162.784 43.7924Z" fill="#CCCCCC"/>
<path d="M210.432 118.162V104.719C210.431 104.124 210.181 103.554 209.736 103.134C209.29 102.714 208.686 102.478 208.056 102.478H154.008C153.378 102.478 152.774 102.714 152.328 103.134C151.883 103.554 151.632 104.124 151.632 104.719V118.162H210.432Z" fill="#CCCCCC"/>
<path d="M210.431 123.203H151.632V140.567H210.431V123.203Z" fill="#CCCCCC"/>
<path d="M151.632 145.609V159.052C151.632 159.646 151.883 160.216 152.328 160.636C152.774 161.056 153.378 161.293 154.008 161.293H208.056C208.686 161.293 209.29 161.056 209.736 160.636C210.181 160.216 210.431 159.646 210.432 159.052V145.609H151.632Z" fill="#CCCCCC"/>
<path d="M180.735 112.561C181.719 112.561 182.517 111.808 182.517 110.88C182.517 109.952 181.719 109.2 180.735 109.2C179.751 109.2 178.953 109.952 178.953 110.88C178.953 111.808 179.751 112.561 180.735 112.561Z" fill="white"/>
<path d="M180.735 134.966C181.719 134.966 182.517 134.214 182.517 133.286C182.517 132.358 181.719 131.605 180.735 131.605C179.751 131.605 178.953 132.358 178.953 133.286C178.953 134.214 179.751 134.966 180.735 134.966Z" fill="white"/>
<path d="M180.83 156.897C181.814 156.897 182.612 156.145 182.612 155.217C182.612 154.289 181.814 153.536 180.83 153.536C179.846 153.536 179.049 154.289 179.049 155.217C179.049 156.145 179.846 156.897 180.83 156.897Z" fill="white"/>
<path d="M203.765 87.1499V102.568H162.806C161.709 102.604 160.615 102.431 159.59 102.06C158.565 101.689 157.63 101.127 156.84 100.408C156.05 99.6881 155.422 98.8261 154.993 97.8728C154.564 96.9196 154.343 95.8946 154.343 94.859C154.343 93.8235 154.564 92.7985 154.993 91.8453C155.422 90.892 156.05 90.03 156.84 89.3105C157.63 88.5911 158.565 88.0291 159.59 87.6579C160.615 87.2867 161.709 87.1139 162.806 87.1499H203.765Z" fill="#F2F2F2"/>
<path d="M204.771 102.45C204.771 102.607 204.705 102.758 204.587 102.869C204.469 102.98 204.309 103.042 204.142 103.043H162.077C160.945 103.043 159.824 102.834 158.778 102.426C157.732 102.018 156.782 101.42 155.981 100.665C155.18 99.9109 154.545 99.015 154.112 98.0289C153.678 97.0428 153.455 95.9858 153.455 94.9183C153.455 93.8509 153.678 92.7939 154.112 91.8078C154.545 90.8217 155.18 89.9258 155.981 89.1713C156.782 88.4168 157.732 87.8186 158.778 87.4107C159.824 87.0028 160.945 86.7933 162.077 86.7942H204.142C204.309 86.7942 204.469 86.8567 204.587 86.9679C204.705 87.0791 204.771 87.2299 204.771 87.3872C204.771 87.5445 204.705 87.6953 204.587 87.8065C204.469 87.9177 204.309 87.9802 204.142 87.9802H162.077C160.127 87.9819 158.257 88.7135 156.879 90.0145C155.501 91.3155 154.727 93.0793 154.727 94.9183C154.727 96.7574 155.501 98.5212 156.879 99.8222C158.257 101.123 160.127 101.855 162.077 101.857H204.142C204.309 101.857 204.469 101.919 204.587 102.03C204.705 102.141 204.771 102.292 204.771 102.45V102.45Z" fill="#3F3D56"/>
<path d="M203.765 90.7067H159.75C159.734 90.7068 159.717 90.7038 159.702 90.6979C159.687 90.6921 159.673 90.6834 159.661 90.6724C159.649 90.6615 159.64 90.6484 159.633 90.634C159.627 90.6197 159.624 90.6043 159.624 90.5887C159.624 90.5731 159.627 90.5577 159.633 90.5434C159.64 90.529 159.649 90.516 159.661 90.505C159.673 90.494 159.687 90.4853 159.702 90.4794C159.717 90.4736 159.734 90.4706 159.75 90.4707H203.765C203.798 90.4709 203.83 90.4835 203.854 90.5056C203.877 90.5277 203.89 90.5575 203.89 90.5887C203.89 90.6198 203.877 90.6497 203.854 90.6718C203.83 90.694 203.798 90.7065 203.765 90.7067V90.7067Z" fill="#CCCCCC"/>
<path d="M203.765 93.5533H159.75C159.734 93.5534 159.717 93.5504 159.702 93.5445C159.687 93.5386 159.673 93.5299 159.661 93.519C159.649 93.508 159.64 93.495 159.633 93.4806C159.627 93.4662 159.624 93.4508 159.624 93.4353C159.624 93.4197 159.627 93.4043 159.633 93.3899C159.64 93.3756 159.649 93.3625 159.661 93.3515C159.673 93.3405 159.687 93.3319 159.702 93.326C159.717 93.3201 159.734 93.3172 159.75 93.3173H203.765C203.798 93.3175 203.83 93.33 203.854 93.3521C203.877 93.3742 203.89 93.4041 203.89 93.4353C203.89 93.4664 203.877 93.4963 203.854 93.5184C203.83 93.5405 203.798 93.5531 203.765 93.5533V93.5533Z" fill="#CCCCCC"/>
<path d="M203.765 96.3997H159.75C159.734 96.3998 159.717 96.3968 159.702 96.3909C159.687 96.385 159.673 96.3764 159.661 96.3654C159.649 96.3544 159.64 96.3414 159.633 96.327C159.627 96.3127 159.624 96.2972 159.624 96.2817C159.624 96.2661 159.627 96.2507 159.633 96.2363C159.64 96.222 159.649 96.2089 159.661 96.1979C159.673 96.187 159.687 96.1783 159.702 96.1724C159.717 96.1666 159.734 96.1636 159.75 96.1637H203.765C203.798 96.1639 203.83 96.1764 203.854 96.1985C203.877 96.2206 203.89 96.2505 203.89 96.2817C203.89 96.3128 203.877 96.3427 203.854 96.3648C203.83 96.3869 203.798 96.3995 203.765 96.3997V96.3997Z" fill="#CCCCCC"/>
<path d="M203.765 99.246H159.75C159.734 99.2461 159.717 99.2432 159.702 99.2373C159.687 99.2314 159.673 99.2227 159.661 99.2118C159.649 99.2008 159.64 99.1877 159.633 99.1734C159.627 99.159 159.624 99.1436 159.624 99.128C159.624 99.1125 159.627 99.097 159.633 99.0827C159.64 99.0683 159.649 99.0553 159.661 99.0443C159.673 99.0333 159.687 99.0246 159.702 99.0188C159.717 99.0129 159.734 99.0099 159.75 99.01H203.765C203.798 99.0102 203.83 99.0228 203.854 99.0449C203.877 99.067 203.89 99.0969 203.89 99.128C203.89 99.1592 203.877 99.1891 203.854 99.2112C203.83 99.2333 203.798 99.2458 203.765 99.246V99.246Z" fill="#CCCCCC"/>
<path d="M300.269 59.3474H281.608C281.431 59.3472 281.256 59.3856 281.097 59.4594L276.387 61.6831C276.232 61.7453 276.1 61.849 276.007 61.9815C275.914 62.114 275.865 62.2693 275.865 62.4281C275.865 62.587 275.914 62.7423 276.007 62.8748C276.1 63.0072 276.232 63.111 276.387 63.1731L281.097 65.3969C281.256 65.4707 281.431 65.509 281.608 65.5089H300.269C300.527 65.5229 300.779 65.4409 300.973 65.2804C301.166 65.12 301.285 64.8942 301.303 64.6519V60.2044C301.285 59.9621 301.166 59.7362 300.973 59.5758C300.779 59.4154 300.527 59.3333 300.269 59.3474Z" fill="#3F3D56"/>
<path d="M301.303 60.2044V64.6519C301.285 64.8942 301.166 65.12 300.973 65.2804C300.779 65.4409 300.527 65.5229 300.269 65.5089H296.552V59.3474H300.269C300.527 59.3333 300.779 59.4154 300.973 59.5758C301.166 59.7363 301.285 59.9621 301.303 60.2044V60.2044Z" fill="#6C63FF"/>
<path d="M300.129 26.0751C300.974 25.7311 301.887 25.5594 302.808 25.5713C303.728 25.5831 304.636 25.7783 305.471 26.144C306.306 26.5096 307.049 27.0376 307.653 27.6932C308.256 28.3488 308.706 29.1172 308.973 29.9482C309.056 30.2117 309.119 30.4803 309.163 30.752L335.259 42.9564L341.298 39.1819L348.813 47.3405L339.591 54.4037C338.482 55.2465 337.115 55.7296 335.692 55.7814C334.269 55.8332 332.866 55.4508 331.691 54.6911L305.214 37.423C305.017 37.5018 304.816 37.571 304.612 37.6303C303.73 37.8817 302.803 37.9546 301.889 37.8443C300.976 37.734 300.098 37.4429 299.312 36.9902C298.527 36.5375 297.851 35.9333 297.331 35.2172C296.81 34.5012 296.455 33.6894 296.29 32.8351C296.241 32.5872 296.209 32.3366 296.194 32.0848C296.12 30.824 296.458 29.5721 297.162 28.4977C297.865 27.4233 298.901 26.5779 300.129 26.0751V26.0751Z" fill="#FFB8B8"/>
<path d="M354.482 101.217H325.968C325.968 101.99 296.58 102.617 296.58 102.617C296.119 102.945 295.698 103.321 295.327 103.738C294.211 104.993 293.601 106.58 293.604 108.219V109.339C293.605 111.196 294.387 112.976 295.78 114.289C297.172 115.602 299.06 116.34 301.028 116.341H354.482C356.451 116.339 358.338 115.601 359.73 114.288C361.122 112.975 361.905 111.195 361.906 109.339V108.219C361.904 106.362 361.121 104.583 359.729 103.271C358.337 101.958 356.45 101.219 354.482 101.217V101.217Z" fill="#3F3D56"/>
<path d="M323.465 163.114H331.186V116.063H323.465V163.114Z" fill="#3F3D56"/>
<path d="M301.49 162.858C301.49 163.645 313.19 163.163 327.623 163.163C342.055 163.163 353.755 163.645 353.755 162.858C353.755 162.072 342.055 155.832 327.623 155.832C313.19 155.832 301.49 162.072 301.49 162.858Z" fill="#3F3D56"/>
<path d="M308.46 157.343L301.179 157.343L297.714 139.532L308.461 139.533L308.46 157.343Z" fill="#FFB8B8"/>
<path d="M310.317 164L286.838 163.999V163.719C286.838 162.587 287.075 161.467 287.534 160.421C287.993 159.375 288.666 158.425 289.515 157.625C290.364 156.825 291.371 156.19 292.48 155.757C293.588 155.324 294.777 155.101 295.977 155.101H295.977L310.317 155.101L310.317 164Z" fill="#2F2E41"/>
<path d="M297.569 146.299L283.053 115.599C281.841 113.011 281.707 110.088 282.678 107.412C283.648 104.735 285.652 102.502 288.291 101.156L319.777 85.2327L334.145 84.0801L347.398 82.944L347.494 83.0966C347.616 83.2913 350.465 87.9332 348.539 93.0232C347.078 96.884 343.278 99.8996 337.243 101.986C323.159 106.857 306.888 111.02 300.547 112.583C300.266 112.651 300.004 112.774 299.778 112.943C299.552 113.113 299.366 113.326 299.233 113.569C299.1 113.808 299.021 114.071 299.001 114.341C298.981 114.611 299.02 114.882 299.117 115.137L312.603 143.712C312.744 144.074 312.794 144.462 312.751 144.846C312.708 145.23 312.572 145.599 312.353 145.926C312.134 146.252 311.839 146.527 311.49 146.728C311.141 146.93 310.748 147.053 310.34 147.089L300.263 147.781C300.178 147.789 300.093 147.793 300.008 147.793C299.492 147.792 298.987 147.651 298.554 147.386C298.121 147.121 297.779 146.743 297.569 146.299V146.299Z" fill="#2F2E41"/>
<path d="M312.023 157.343L304.742 157.343L301.278 139.532L312.024 139.533L312.023 157.343Z" fill="#FFB8B8"/>
<path d="M313.88 164L290.402 163.999V163.719C290.402 162.587 290.638 161.467 291.098 160.421C291.557 159.375 292.23 158.425 293.079 157.625C293.927 156.825 294.935 156.19 296.043 155.757C297.152 155.324 298.34 155.101 299.54 155.101H299.541L313.881 155.101L313.88 164Z" fill="#2F2E41"/>
<path d="M301.727 147.979L287.21 117.279C285.998 114.692 285.864 111.769 286.835 109.092C287.806 106.416 289.81 104.182 292.448 102.837L323.934 86.9131L338.302 85.7605L351.556 84.6244L351.651 84.777C351.773 84.9717 354.623 89.6137 352.697 94.7036C351.236 98.5644 347.435 101.58 341.401 103.667C327.316 108.537 311.046 112.7 304.704 114.264C304.424 114.331 304.162 114.454 303.936 114.624C303.709 114.794 303.524 115.007 303.391 115.249C303.258 115.489 303.179 115.752 303.159 116.022C303.139 116.291 303.178 116.562 303.274 116.817L316.76 145.392C316.901 145.755 316.952 146.143 316.909 146.527C316.865 146.91 316.729 147.28 316.51 147.606C316.292 147.932 315.997 148.207 315.648 148.409C315.299 148.61 314.905 148.734 314.498 148.77L304.421 149.462C304.335 149.469 304.25 149.473 304.165 149.473C303.649 149.473 303.144 149.332 302.712 149.067C302.279 148.801 301.937 148.424 301.727 147.979V147.979Z" fill="#2F2E41"/>
<path d="M294.491 54.1948C288.391 46.5426 283.569 38.055 280.192 29.0268C279.997 28.4868 280.011 27.8988 280.232 27.3675C280.453 26.8363 280.866 26.3962 281.399 26.1256L302.273 15.5773C302.611 15.4054 302.985 15.3084 303.369 15.2937C303.752 15.279 304.134 15.3471 304.486 15.4926C304.843 15.6393 305.161 15.861 305.414 16.141C305.668 16.4209 305.85 16.7517 305.947 17.1081C308.377 25.8079 312.944 33.8462 319.279 40.5727C319.539 40.8464 319.73 41.1728 319.837 41.5267C319.944 41.8807 319.964 42.253 319.895 42.6152C319.829 42.9718 319.678 43.3094 319.452 43.6023C319.227 43.8953 318.934 44.1359 318.595 44.3058L297.721 54.8541C297.187 55.1226 296.569 55.2037 295.978 55.083C295.387 54.9623 294.86 54.6475 294.491 54.1948V54.1948Z" fill="#CCCCCC"/>
<path d="M295.916 53.1853C296.028 53.3175 296.186 53.4085 296.362 53.4428C296.537 53.4771 296.721 53.4524 296.879 53.373L317.753 42.8244C317.855 42.7746 317.942 42.7033 318.01 42.6161C318.077 42.529 318.122 42.4283 318.141 42.322C318.163 42.2098 318.156 42.0943 318.123 41.9847C318.089 41.8751 318.029 41.7743 317.948 41.6902C311.426 34.7656 306.725 26.4904 304.224 17.5342C304.195 17.4236 304.139 17.3207 304.061 17.2338C303.983 17.1468 303.885 17.0781 303.774 17.0329C303.669 16.9888 303.555 16.9682 303.441 16.9726C303.326 16.9771 303.214 17.0065 303.114 17.0586L282.241 27.6069C282.082 27.6874 281.959 27.8176 281.892 27.9748C281.825 28.132 281.818 28.3064 281.873 28.4679C285.189 37.3344 289.925 45.6701 295.916 53.1853V53.1853Z" fill="white"/>
<path d="M363.837 51.3809L347.49 57.2396L343.499 46.7838C342.969 45.3954 342.976 43.875 343.52 42.4913C344.063 41.1076 345.108 39.9497 346.469 39.2222V39.2222C347.846 38.4862 349.457 38.239 351.011 38.525C352.564 38.811 353.958 39.6115 354.94 40.7819L363.837 51.3809Z" fill="#6C63FF"/>
<path d="M322.257 92.8089C321.912 92.5793 321.624 92.2833 321.411 91.9406C321.197 91.5978 321.064 91.2162 321.019 90.821C318.925 72.387 320.384 57.961 325.477 46.7186C326.374 44.7796 327.726 43.0575 329.43 41.6818C331.134 40.3061 333.147 39.3127 335.317 38.776L348.531 38.147L348.6 38.1782C351.582 39.5556 354.014 41.8027 355.535 44.5863C357.056 47.3699 357.586 50.5417 357.045 53.6315C352.795 64.1975 349.236 75.1984 351.95 84.0728C352.064 84.4438 352.097 84.8327 352.048 85.2161C351.998 85.5995 351.867 85.9696 351.663 86.3041C351.464 86.6274 351.197 86.909 350.879 87.1314C350.561 87.3539 350.198 87.5125 349.812 87.5975L324.642 93.2442C324.234 93.3357 323.811 93.3442 323.4 93.2691C322.988 93.194 322.599 93.0371 322.257 92.8089Z" fill="#6C63FF"/>
<path d="M344.121 33.4921C352.178 33.4921 358.709 27.3326 358.709 19.7345C358.709 12.1364 352.178 5.97693 344.121 5.97693C336.065 5.97693 329.534 12.1364 329.534 19.7345C329.534 27.3326 336.065 33.4921 344.121 33.4921Z" fill="#FFB8B8"/>
<path d="M303.643 30.6309L292.274 35.3638C291.842 35.5433 291.352 35.5537 290.911 35.3927C290.471 35.2317 290.116 34.9125 289.925 34.5051L289.644 33.9043C289.453 33.4966 289.442 33.0343 289.613 32.6188C289.784 32.2034 290.122 31.8688 290.554 31.6884L301.923 26.9555C302.355 26.776 302.845 26.7657 303.286 26.9266C303.726 27.0876 304.081 27.4068 304.272 27.8142L304.554 28.415C304.744 28.8227 304.755 29.2851 304.584 29.7005C304.413 30.1159 304.075 30.4505 303.643 30.6309V30.6309Z" fill="#CCCCCC"/>
<path d="M307.801 37.9126L296.432 42.6455C295.999 42.825 295.509 42.8354 295.069 42.6744C294.628 42.5134 294.274 42.1942 294.082 41.7868L293.801 41.1861C293.611 40.7783 293.6 40.316 293.77 39.9006C293.941 39.4851 294.28 39.1505 294.712 38.9702L306.08 34.2373C306.513 34.0578 307.003 34.0474 307.443 34.2084C307.884 34.3694 308.239 34.6886 308.43 35.0959L308.711 35.6967C308.901 36.1045 308.912 36.5668 308.742 36.9822C308.571 37.3976 308.233 37.7322 307.801 37.9126V37.9126Z" fill="#CCCCCC"/>
<path d="M316.568 66.3548L291.222 47.4972C291.021 47.5642 290.815 47.6213 290.607 47.6684C289.712 47.8658 288.784 47.8834 287.882 47.7202C286.979 47.557 286.124 47.2165 285.37 46.721C284.611 46.2251 283.974 45.5822 283.5 44.8351C283.026 44.088 282.727 43.2542 282.622 42.3892C282.452 41.0065 282.783 39.6102 283.56 38.4269C284.337 37.2435 285.515 36.3426 286.904 35.8702C287.77 35.5771 288.693 35.4599 289.611 35.5264C290.528 35.5929 291.421 35.8415 292.23 36.2559C293.039 36.6704 293.746 37.2414 294.305 37.9314C294.863 38.6215 295.261 39.4151 295.472 40.2603C295.537 40.5281 295.583 40.7999 295.608 41.0737L320.839 54.8012L327.118 51.3919L334.073 59.98L324.325 66.5331C323.183 67.294 321.812 67.6876 320.415 67.6554C319.018 67.6233 317.669 67.1672 316.568 66.3548V66.3548Z" fill="#FFB8B8"/>
<path d="M337.166 62.6545L322.705 53.3801L329.501 44.302C330.403 43.0965 331.729 42.2308 333.242 41.8577C334.756 41.4846 336.361 41.6282 337.774 42.2631V42.2631C339.202 42.9054 340.341 44.0083 340.983 45.3727C341.625 46.7371 341.728 48.2731 341.274 49.7032L337.166 62.6545Z" fill="#6C63FF"/>
<path d="M338.773 17.6854C335.024 20.1055 330.101 22.5932 326.271 20.016C323.757 18.3238 322.965 15.1902 323.984 12.4402C325.818 7.495 330.856 5.31789 335.673 3.64908C341.936 1.47964 348.755 -0.246248 355.22 1.3074C361.685 2.86105 367.399 8.76448 366.232 14.9596C365.293 19.9416 360.31 24.087 361.018 29.1029C361.73 34.1509 367.749 36.8081 373.064 37.7103C378.378 38.6125 384.325 38.9024 388.144 42.5024C393.016 47.0948 391.799 55.3034 387.215 60.1521C382.631 65.0008 375.712 67.1987 369.009 68.6928C360.127 70.6725 350.52 71.7129 342.085 68.4275C333.649 65.142 327.084 56.298 329.528 48.0049C330.56 44.5019 332.992 41.5414 335.342 38.6593C337.692 35.7772 340.071 32.7633 340.968 29.2272C341.715 26.2805 341.162 22.8592 339.09 20.6488C338.713 20.2619 338.476 19.7723 338.412 19.2504C338.349 18.7284 338.463 18.2009 338.737 17.7437L338.773 17.6854Z" fill="#2F2E41"/>
<path d="M64.7813 84.5286C61.0224 85.7747 56.9865 86.0869 53.0626 85.435C49.1386 84.7831 45.4588 83.1891 42.3776 80.8066C34.5306 74.5951 32.0703 64.3618 30.0685 54.8862C28.0948 45.5439 26.1211 36.2017 24.1474 26.8594L36.5437 34.9094C45.4584 40.6985 54.5739 46.673 60.7464 55.0582C66.919 63.4434 69.6132 74.8899 64.6538 83.9631" fill="#E6E6E6"/>
<path d="M63.7217 118.461C64.9764 109.842 66.2665 101.112 65.3864 92.4006C64.6048 84.6638 62.102 77.1072 57.0067 70.9113C54.3021 67.6288 51.0112 64.8162 47.2818 62.6003C46.3093 62.0214 45.4142 63.4749 46.3825 64.0513C52.8354 67.8975 57.8265 73.5769 60.6362 80.2708C63.7394 87.7148 64.2377 95.8293 63.703 103.737C63.3796 108.519 62.6942 113.27 62.0035 118.014C61.9491 118.229 61.983 118.455 62.0985 118.647C62.214 118.839 62.4025 118.982 62.6257 119.048C62.8535 119.106 63.0964 119.077 63.3015 118.967C63.5067 118.857 63.6576 118.675 63.7217 118.461H63.7217Z" fill="#F2F2F2"/>
<path d="M51.6369 103.209C50.0248 105.52 47.8088 107.4 45.2025 108.669C42.5961 109.938 39.6873 110.552 36.7561 110.452C29.2232 110.115 22.9432 105.157 17.29 100.449L0.568878 86.526L11.6355 86.0266C19.5939 85.6674 27.7577 85.3323 35.3378 87.6469C42.918 89.9615 49.9088 95.5319 51.2948 102.932" fill="#E6E6E6"/>
<path d="M67.2675 123.416C61.2285 113.338 54.2239 102.138 41.7078 98.5583C38.2277 97.5663 34.5786 97.211 30.957 97.5114C29.8156 97.6042 30.1006 99.2636 31.24 99.1709C37.3106 98.6956 43.3694 100.207 48.3966 103.452C53.2341 106.557 57.0006 110.874 60.1885 115.453C62.1412 118.257 63.8904 121.181 65.6398 124.1C66.1989 125.033 67.8331 124.359 67.2675 123.416V123.416Z" fill="#F2F2F2"/>
<path d="M76.9436 134.023C76.7401 131.799 75.8936 129.671 74.4963 127.87C73.099 126.069 71.2044 124.664 69.0189 123.808V117.982H58.6578V123.991C56.5799 124.889 54.7916 126.291 53.4753 128.053C52.159 129.815 51.3617 131.875 51.1647 134.023L48.7284 160.732H79.3799L76.9436 134.023Z" fill="#F2F2F2"/>
</svg>
