<svg width="434" height="195" viewBox="0 0 434 195" fill="none" xmlns="http://www.w3.org/2000/svg">
<g clip-path="url(#clip0_22_460)">
<path d="M414.009 106.711C413.656 105.763 413.736 104.729 414.23 103.832C414.723 102.936 415.592 102.25 416.647 101.923C416.863 101.859 417.085 101.812 417.31 101.78L419.582 93.4316L425.506 93.448L422.115 105.197C422.198 106.038 421.964 106.88 421.45 107.589C420.937 108.297 420.174 108.831 419.282 109.107C418.76 109.262 418.209 109.324 417.661 109.288C417.112 109.251 416.577 109.118 416.087 108.895C415.596 108.672 415.16 108.365 414.803 107.99C414.447 107.615 414.177 107.18 414.009 106.711Z" fill="#9F616A"/>
<path d="M424.011 101.309L414.938 100.738L419.332 76.9593L416.536 50.7764L425.708 47.3617L431.824 76.4379L431.808 76.4909L424.011 101.309Z" fill="#2F2E41"/>
<path d="M353.853 98.5219C353.833 97.5249 354.255 96.5615 355.028 95.8435C355.801 95.1256 356.861 94.7118 357.974 94.6932C358.202 94.6922 358.429 94.7081 358.654 94.7407L363.623 87.4199L369.26 89.0772L362.081 99.326C361.864 100.226 361.282 101.022 360.447 101.561C359.613 102.1 358.585 102.342 357.563 102.242C356.54 102.142 355.595 101.707 354.91 101.02C354.225 100.333 353.848 99.443 353.853 98.5219Z" fill="#9F616A"/>
<path d="M381.834 190.059H377.007L374.711 173.155L381.835 173.155L381.834 190.059Z" fill="#9F616A"/>
<path d="M383.065 194.308L367.502 194.307V194.128C367.495 192.673 368.134 191.274 369.276 190.239C369.834 189.728 370.5 189.322 371.236 189.046C371.971 188.769 372.761 188.627 373.559 188.628H373.56L383.065 188.629L383.065 194.308Z" fill="#2F2E41"/>
<path d="M415.507 190.059H410.68L408.384 173.155L415.507 173.155L415.507 190.059Z" fill="#9F616A"/>
<path d="M416.738 194.308L401.174 194.307V194.128C401.168 192.673 401.806 191.274 402.949 190.239C403.507 189.728 404.173 189.322 404.909 189.046C405.644 188.769 406.434 188.627 407.232 188.628H407.233L416.738 188.629L416.738 194.308Z" fill="#2F2E41"/>
<path d="M410.917 31.3188C417.25 31.3188 422.383 26.6572 422.383 20.9069C422.383 15.1567 417.25 10.4951 410.917 10.4951C404.584 10.4951 399.45 15.1567 399.45 20.9069C399.45 26.6572 404.584 31.3188 410.917 31.3188Z" fill="#9F616A"/>
<path d="M407.044 20.336C405.32 20.9311 403.414 20.9505 401.675 20.3906C399.937 19.8307 398.481 18.7289 397.575 17.2869C396.753 15.7913 396.546 14.0842 396.99 12.4653C397.434 10.8465 398.5 9.4195 400.002 8.435C403.054 6.58048 407.612 7.19429 410.571 9.34513C412.566 8.52211 414.805 8.29641 416.954 8.70148C419.104 9.10655 421.051 10.1208 422.507 11.5941C425.363 14.5942 425.675 19.3563 423.594 22.8537C422.683 24.6792 422.279 26.6749 422.417 28.6705C422.555 30.6661 423.23 32.6021 424.384 34.3134C423.489 34.2803 421.518 34.1297 419.051 33.9364C418.337 33.8805 418.029 31.9769 417.246 31.9157C416.556 31.8617 415.398 33.6504 414.674 33.5949C409.318 33.184 403.321 32.7665 400.603 32.8482C402.51 28.5817 404.66 24.4055 407.044 20.336Z" fill="#2F2E41"/>
<path d="M419.71 94.2566C419.71 94.2566 423.437 97.7452 421.162 115.76L419.59 154.012L416.808 187.883L407.859 187.343L399.998 109.385L388.993 137.912L383.067 185.074L374.481 184.534L373.015 137.634L376.779 101.388L419.71 94.2566Z" fill="#2F2E41"/>
<path d="M382.826 103.571C378.247 103.571 376.403 103.071 376.268 103.033L376.056 102.972L376.093 102.773C376.124 102.609 379.2 86.3237 383.421 77.774L386.389 43.1014C386.467 42.0775 386.93 41.1075 387.703 40.3492C388.475 39.5909 389.511 39.0888 390.642 38.9246L390.682 39.1538L390.642 38.9246L398.192 37.8484L402.81 34.156L413.874 34.7115L414.849 38.9608C416.172 39.2967 424.904 41.7265 425.768 47.545L425.779 47.6179L425.742 47.6829L409.745 75.625C411.097 76.8364 421.78 86.8009 422.505 99.5397L422.522 99.8461L422.193 99.7777C422.162 99.7721 418.744 99.1821 400.766 101.942C392.452 103.218 386.673 103.571 382.826 103.571Z" fill="#2F2E41"/>
<path d="M365.092 98.3532L358.572 93.7939L373.125 67.356L386.66 41.4445C386.846 41.0833 387.152 40.7823 387.536 40.5827C387.92 40.3832 388.363 40.2949 388.806 40.3299C389.248 40.3649 389.667 40.5215 390.006 40.7783C390.345 41.0351 390.587 41.3795 390.699 41.7643L394.05 52.8003L383.573 77.5504L365.092 98.3532Z" fill="#2F2E41"/>
<path d="M523.037 195.111H290.622C290.457 195.111 290.299 195.052 290.182 194.948C290.066 194.843 290 194.702 290 194.554C290 194.406 290.066 194.264 290.182 194.16C290.299 194.055 290.457 193.997 290.622 193.997H523.339C523.504 193.997 523.662 194.055 523.779 194.16C523.895 194.264 523.961 194.406 523.961 194.554C523.961 194.862 523.381 195.111 523.037 195.111Z" fill="#CBCBCB"/>
<path d="M106.402 102.831H3.11118C2.28634 102.83 1.49557 102.536 0.912314 102.014C0.329062 101.491 0.000955157 100.783 0 100.045V68.8414C0.000956801 68.1028 0.329062 67.3947 0.912314 66.8724C1.49557 66.3501 2.28634 66.0563 3.11118 66.0554H106.402C107.227 66.0563 108.018 66.3501 108.601 66.8724C109.185 67.3947 109.513 68.1028 109.514 68.8414V100.045C109.513 100.783 109.185 101.491 108.601 102.014C108.018 102.536 107.227 102.83 106.402 102.831Z" fill="#3F3D56"/>
<path d="M38.026 84.2013H10.6476V86.9873H38.026V84.2013Z" fill="white"/>
<path d="M74.1155 87.5445C75.1465 87.5445 75.9822 86.7961 75.9822 85.8729C75.9822 84.9497 75.1465 84.2013 74.1155 84.2013C73.0845 84.2013 72.2488 84.9497 72.2488 85.8729C72.2488 86.7961 73.0845 87.5445 74.1155 87.5445Z" fill="#6C63FF"/>
<path d="M80.338 87.5445C81.369 87.5445 82.2047 86.7961 82.2047 85.8729C82.2047 84.9497 81.369 84.2013 80.338 84.2013C79.3071 84.2013 78.4713 84.9497 78.4713 85.8729C78.4713 86.7961 79.3071 87.5445 80.338 87.5445Z" fill="#6C63FF"/>
<path d="M86.5603 87.5445C87.5913 87.5445 88.427 86.7961 88.427 85.8729C88.427 84.9497 87.5913 84.2013 86.5603 84.2013C85.5294 84.2013 84.6936 84.9497 84.6936 85.8729C84.6936 86.7961 85.5294 87.5445 86.5603 87.5445Z" fill="#6C63FF"/>
<path d="M106.402 142.392H3.11118C2.28634 142.391 1.49557 142.097 0.912314 141.575C0.329062 141.052 0.000955157 140.344 0 139.606V108.402C0.000956801 107.664 0.329062 106.956 0.912314 106.433C1.49557 105.911 2.28634 105.617 3.11118 105.616H106.402C107.227 105.617 108.018 105.911 108.601 106.433C109.185 106.956 109.513 107.664 109.514 108.402V139.606C109.513 140.344 109.185 141.052 108.601 141.575C108.018 142.097 107.227 142.391 106.402 142.392Z" fill="#3F3D56"/>
<path d="M38.026 123.763H10.6476V126.549H38.026V123.763Z" fill="white"/>
<path d="M74.1155 127.106C75.1465 127.106 75.9822 126.358 75.9822 125.434C75.9822 124.511 75.1465 123.763 74.1155 123.763C73.0845 123.763 72.2488 124.511 72.2488 125.434C72.2488 126.358 73.0845 127.106 74.1155 127.106Z" fill="#6C63FF"/>
<path d="M80.338 127.106C81.369 127.106 82.2047 126.358 82.2047 125.434C82.2047 124.511 81.369 123.763 80.338 123.763C79.3071 123.763 78.4713 124.511 78.4713 125.434C78.4713 126.358 79.3071 127.106 80.338 127.106Z" fill="#6C63FF"/>
<path d="M86.5603 127.106C87.5913 127.106 88.427 126.358 88.427 125.434C88.427 124.511 87.5913 123.763 86.5603 123.763C85.5294 123.763 84.6936 124.511 84.6936 125.434C84.6936 126.358 85.5294 127.106 86.5603 127.106Z" fill="#6C63FF"/>
<path d="M106.402 181.953H3.11118C2.28634 181.952 1.49557 181.658 0.912314 181.136C0.329062 180.614 0.000955157 179.906 0 179.167V147.964C0.000956801 147.225 0.329062 146.517 0.912314 145.995C1.49557 145.473 2.28634 145.179 3.11118 145.178H106.402C107.227 145.179 108.018 145.473 108.601 145.995C109.185 146.517 109.513 147.225 109.514 147.964V179.167C109.513 179.906 109.185 180.614 108.601 181.136C108.018 181.658 107.227 181.952 106.402 181.953Z" fill="#3F3D56"/>
<path d="M38.026 163.324H10.6476V166.11H38.026V163.324Z" fill="white"/>
<path d="M74.1155 166.667C75.1465 166.667 75.9822 165.919 75.9822 164.995C75.9822 164.072 75.1465 163.324 74.1155 163.324C73.0845 163.324 72.2488 164.072 72.2488 164.995C72.2488 165.919 73.0845 166.667 74.1155 166.667Z" fill="#6C63FF"/>
<path d="M80.338 166.667C81.369 166.667 82.2047 165.919 82.2047 164.995C82.2047 164.072 81.369 163.324 80.338 163.324C79.3071 163.324 78.4713 164.072 78.4713 164.995C78.4713 165.919 79.3071 166.667 80.338 166.667Z" fill="#6C63FF"/>
<path d="M86.5603 166.667C87.5913 166.667 88.427 165.919 88.427 164.995C88.427 164.072 87.5913 163.324 86.5603 163.324C85.5294 163.324 84.6936 164.072 84.6936 164.995C84.6936 165.919 85.5294 166.667 86.5603 166.667Z" fill="#6C63FF"/>
</g>
<defs>
<clipPath id="clip0_22_460">
<rect width="434" height="195" fill="white"/>
</clipPath>
</defs>
</svg>
